<svg xmlns="http://www.w3.org/2000/svg" xmlns:xlink="http://www.w3.org/1999/xlink" xmlns:sketch="http://www.bohemiancoding.com/sketch/ns" viewBox="0 0 100 125" version="1.1" x="0px" y="0px"><title>user</title><desc>Created with Sketch.</desc><g stroke="none" stroke-width="1" fill="none" fill-rule="evenodd" sketch:type="MSPage"><g sketch:type="MSArtboardGroup"><g sketch:type="MSLayerGroup" transform="translate(10.000000, 10.000000)"><path d="M0,0 L80,0 L80,80 L0,80 L0,0 Z" sketch:type="MSShapeGroup"/></g><path d="M10,90 L90,90 L90,82 C90,62 74,58 50,58 C26,58 10,62 10,82 L10,90 L10,90 Z M50,50 C62,50 70,42 70,30 C70,18 62,10 50,10 C38,10 30,18 30,30 C30,42 38,50 50,50 L50,50 Z" fill="#000000" sketch:type="MSShapeGroup"/></g></g><text x="0" y="115" fill="#000000" font-size="5px" font-weight="bold" font-family="'Helvetica Neue', Helvetica, Arial-Unicode, Arial, Sans-serif">Created by Yorlmar Campos</text><text x="0" y="120" fill="#000000" font-size="5px" font-weight="bold" font-family="'Helvetica Neue', Helvetica, Arial-Unicode, Arial, Sans-serif">from the Noun Project</text></svg>